<svg id="visual" viewBox="0 0 900 600" width="900" height="600" xmlns="http://www.w3.org/2000/svg" xmlns:xlink="http://www.w3.org/1999/xlink" version="1.1"><rect x="0" y="0" width="900" height="600" fill="#002233"></rect><path d="M0 475L13.7 478.3C27.3 481.7 54.7 488.3 82 486.2C109.3 484 136.7 473 163.8 458.7C191 444.3 218 426.7 245.2 429.8C272.3 433 299.7 457 327 471.3C354.3 485.7 381.7 490.3 409 484.5C436.3 478.7 463.7 462.3 491 449.3C518.3 436.3 545.7 426.7 573 423C600.3 419.3 627.7 421.7 654.8 437C682 452.3 709 480.7 736.2 490C763.3 499.3 790.7 489.7 818 486.5C845.3 483.3 872.7 486.7 886.3 488.3L900 490L900 601L886.3 601C872.7 601 845.3 601 818 601C790.7 601 763.3 601 736.2 601C709 601 682 601 654.8 601C627.7 601 600.3 601 573 601C545.7 601 518.3 601 491 601C463.7 601 436.3 601 409 601C381.7 601 354.3 601 327 601C299.7 601 272.3 601 245.2 601C218 601 191 601 163.8 601C136.7 601 109.3 601 82 601C54.7 601 27.3 601 13.7 601L0 601Z" fill="#0066FF" stroke-linecap="round" stroke-linejoin="miter"></path></svg>